<mxfile host="app.diagrams.net" agent="Mozilla/5.0 (X11; Linux x86_64) AppleWebKit/537.36 (KHTML, like Gecko) Chrome/131.0.0.0 Safari/537.36" version="26.0.6" pages="2">
  <diagram id="icO13vb0mqmkHHf4-wn3" name="cascade_pbx_topo">
    <mxGraphModel dx="418" dy="245" grid="1" gridSize="10" guides="1" tooltips="1" connect="1" arrows="1" fold="1" page="1" pageScale="1" pageWidth="827" pageHeight="1169" math="0" shadow="0">
      <root>
        <mxCell id="0" />
        <mxCell id="1" parent="0" />
        <mxCell id="by5dA0bPQGcLcG-1_i2Y-1" value="&lt;font style=&quot;font-size: 18px;&quot;&gt;上级设备&lt;/font&gt;" style="rounded=0;whiteSpace=wrap;html=1;fillColor=#dae8fc;strokeColor=#6c8ebf;" parent="1" vertex="1">
          <mxGeometry x="40" y="300" width="390" height="110" as="geometry" />
        </mxCell>
        <mxCell id="by5dA0bPQGcLcG-1_i2Y-5" value="&lt;font style=&quot;font-size: 18px;&quot;&gt;下级设备&lt;/font&gt;" style="rounded=0;whiteSpace=wrap;html=1;fillColor=#dae8fc;strokeColor=#6c8ebf;" parent="1" vertex="1">
          <mxGeometry x="630" y="300" width="380" height="110" as="geometry" />
        </mxCell>
        <mxCell id="by5dA0bPQGcLcG-1_i2Y-7" value="" style="shape=mxgraph.cisco.misc.axp;sketch=0;html=1;pointerEvents=1;dashed=0;fillColor=#036897;strokeColor=#ffffff;strokeWidth=2;verticalLabelPosition=bottom;verticalAlign=top;align=center;outlineConnect=0;" parent="1" vertex="1">
          <mxGeometry x="372.25" y="480" width="52.5" height="49" as="geometry" />
        </mxCell>
        <mxCell id="by5dA0bPQGcLcG-1_i2Y-8" value="" style="sketch=0;pointerEvents=1;shadow=0;dashed=0;html=1;strokeColor=none;fillColor=#505050;labelPosition=center;verticalLabelPosition=bottom;verticalAlign=top;outlineConnect=0;align=center;shape=mxgraph.office.devices.phone_voip;" parent="1" vertex="1">
          <mxGeometry x="23" y="504" width="57" height="51" as="geometry" />
        </mxCell>
        <mxCell id="by5dA0bPQGcLcG-1_i2Y-12" value="" style="sketch=0;pointerEvents=1;shadow=0;dashed=0;html=1;strokeColor=none;fillColor=#505050;labelPosition=center;verticalLabelPosition=bottom;verticalAlign=top;outlineConnect=0;align=center;shape=mxgraph.office.devices.phone_voip;" parent="1" vertex="1">
          <mxGeometry x="771.5" y="478" width="57" height="51" as="geometry" />
        </mxCell>
        <mxCell id="by5dA0bPQGcLcG-1_i2Y-14" value="" style="sketch=0;pointerEvents=1;shadow=0;dashed=0;html=1;strokeColor=none;fillColor=#505050;labelPosition=center;verticalLabelPosition=bottom;verticalAlign=top;outlineConnect=0;align=center;shape=mxgraph.office.devices.phone_voip;" parent="1" vertex="1">
          <mxGeometry x="189" y="508" width="57" height="51" as="geometry" />
        </mxCell>
        <mxCell id="by5dA0bPQGcLcG-1_i2Y-15" value="" style="sketch=0;pointerEvents=1;shadow=0;dashed=0;html=1;strokeColor=none;fillColor=#505050;labelPosition=center;verticalLabelPosition=bottom;verticalAlign=top;outlineConnect=0;align=center;shape=mxgraph.office.devices.phone_voip;" parent="1" vertex="1">
          <mxGeometry x="938" y="559" width="57" height="51" as="geometry" />
        </mxCell>
        <mxCell id="by5dA0bPQGcLcG-1_i2Y-16" value="" style="sketch=0;pointerEvents=1;shadow=0;dashed=0;html=1;strokeColor=none;fillColor=#505050;labelPosition=center;verticalLabelPosition=bottom;verticalAlign=top;outlineConnect=0;align=center;shape=mxgraph.office.devices.phone_voip;" parent="1" vertex="1">
          <mxGeometry x="613" y="499" width="57" height="51" as="geometry" />
        </mxCell>
        <mxCell id="by5dA0bPQGcLcG-1_i2Y-23" value="LAN6" style="rounded=0;whiteSpace=wrap;html=1;fillColor=#dae8fc;strokeColor=#6c8ebf;" parent="1" vertex="1">
          <mxGeometry x="80" y="410" width="50" height="32" as="geometry" />
        </mxCell>
        <mxCell id="by5dA0bPQGcLcG-1_i2Y-24" value="FXS5" style="rounded=0;whiteSpace=wrap;html=1;fillColor=#d5e8d4;strokeColor=#82b366;" parent="1" vertex="1">
          <mxGeometry x="191" y="410" width="53" height="32" as="geometry" />
        </mxCell>
        <mxCell id="by5dA0bPQGcLcG-1_i2Y-25" value="LAN6" style="rounded=0;whiteSpace=wrap;html=1;fillColor=#dae8fc;strokeColor=#6c8ebf;" parent="1" vertex="1">
          <mxGeometry x="650" y="410" width="53" height="32" as="geometry" />
        </mxCell>
        <mxCell id="by5dA0bPQGcLcG-1_i2Y-26" value="FXS5" style="rounded=0;whiteSpace=wrap;html=1;fillColor=#d5e8d4;strokeColor=#82b366;" parent="1" vertex="1">
          <mxGeometry x="770" y="410" width="53" height="32" as="geometry" />
        </mxCell>
        <mxCell id="by5dA0bPQGcLcG-1_i2Y-27" value="GPON1" style="rounded=0;whiteSpace=wrap;html=1;fillColor=#fff2cc;strokeColor=#d6b656;" parent="1" vertex="1">
          <mxGeometry x="372.25" y="410" width="53" height="32" as="geometry" />
        </mxCell>
        <mxCell id="by5dA0bPQGcLcG-1_i2Y-28" value="" style="shape=mxgraph.cisco.misc.axp;sketch=0;html=1;pointerEvents=1;dashed=0;fillColor=#036897;strokeColor=#ffffff;strokeWidth=2;verticalLabelPosition=bottom;verticalAlign=top;align=center;outlineConnect=0;" parent="1" vertex="1">
          <mxGeometry x="940" y="480" width="52.5" height="49" as="geometry" />
        </mxCell>
        <mxCell id="by5dA0bPQGcLcG-1_i2Y-29" value="GPON1" style="rounded=0;whiteSpace=wrap;html=1;fillColor=#fff2cc;strokeColor=#d6b656;" parent="1" vertex="1">
          <mxGeometry x="940" y="410" width="53" height="32" as="geometry" />
        </mxCell>
        <mxCell id="by5dA0bPQGcLcG-1_i2Y-30" value="" style="sketch=0;pointerEvents=1;shadow=0;dashed=0;html=1;strokeColor=none;fillColor=#505050;labelPosition=center;verticalLabelPosition=bottom;verticalAlign=top;outlineConnect=0;align=center;shape=mxgraph.office.devices.phone_voip;" parent="1" vertex="1">
          <mxGeometry x="370" y="570" width="57" height="51" as="geometry" />
        </mxCell>
        <mxCell id="by5dA0bPQGcLcG-1_i2Y-36" value="1001" style="text;html=1;align=center;verticalAlign=middle;whiteSpace=wrap;rounded=0;" parent="1" vertex="1">
          <mxGeometry x="16" y="555" width="60" height="30" as="geometry" />
        </mxCell>
        <mxCell id="by5dA0bPQGcLcG-1_i2Y-37" value="2001" style="text;html=1;align=center;verticalAlign=middle;whiteSpace=wrap;rounded=0;" parent="1" vertex="1">
          <mxGeometry x="184" y="555" width="60" height="30" as="geometry" />
        </mxCell>
        <mxCell id="by5dA0bPQGcLcG-1_i2Y-38" value="" style="sketch=0;pointerEvents=1;shadow=0;dashed=0;html=1;strokeColor=none;fillColor=#505050;labelPosition=center;verticalLabelPosition=bottom;verticalAlign=top;outlineConnect=0;align=center;shape=mxgraph.office.devices.phone_voip;" parent="1" vertex="1">
          <mxGeometry x="253.5" y="508" width="57" height="51" as="geometry" />
        </mxCell>
        <mxCell id="by5dA0bPQGcLcG-1_i2Y-39" value="FXS6" style="rounded=0;whiteSpace=wrap;html=1;fillColor=#d5e8d4;strokeColor=#82b366;" parent="1" vertex="1">
          <mxGeometry x="255.5" y="410" width="53" height="32" as="geometry" />
        </mxCell>
        <mxCell id="by5dA0bPQGcLcG-1_i2Y-40" value="2002" style="text;html=1;align=center;verticalAlign=middle;whiteSpace=wrap;rounded=0;" parent="1" vertex="1">
          <mxGeometry x="250.5" y="555" width="60" height="30" as="geometry" />
        </mxCell>
        <mxCell id="by5dA0bPQGcLcG-1_i2Y-41" value="1011" style="text;html=1;align=center;verticalAlign=middle;whiteSpace=wrap;rounded=0;" parent="1" vertex="1">
          <mxGeometry x="620" y="550" width="60" height="30" as="geometry" />
        </mxCell>
        <mxCell id="by5dA0bPQGcLcG-1_i2Y-42" value="" style="sketch=0;pointerEvents=1;shadow=0;dashed=0;html=1;strokeColor=none;fillColor=#505050;labelPosition=center;verticalLabelPosition=bottom;verticalAlign=top;outlineConnect=0;align=center;shape=mxgraph.office.devices.phone_voip;" parent="1" vertex="1">
          <mxGeometry x="833.5" y="474.5" width="57" height="51" as="geometry" />
        </mxCell>
        <mxCell id="by5dA0bPQGcLcG-1_i2Y-43" value="FXS6" style="rounded=0;whiteSpace=wrap;html=1;fillColor=#d5e8d4;strokeColor=#82b366;" parent="1" vertex="1">
          <mxGeometry x="835.5" y="410" width="53" height="32" as="geometry" />
        </mxCell>
        <mxCell id="by5dA0bPQGcLcG-1_i2Y-44" value="2011" style="text;html=1;align=center;verticalAlign=middle;whiteSpace=wrap;rounded=0;" parent="1" vertex="1">
          <mxGeometry x="770" y="529" width="60" height="30" as="geometry" />
        </mxCell>
        <mxCell id="by5dA0bPQGcLcG-1_i2Y-45" value="2012" style="text;html=1;align=center;verticalAlign=middle;whiteSpace=wrap;rounded=0;" parent="1" vertex="1">
          <mxGeometry x="832" y="529" width="60" height="30" as="geometry" />
        </mxCell>
        <mxCell id="by5dA0bPQGcLcG-1_i2Y-46" value="3001" style="text;html=1;align=center;verticalAlign=middle;whiteSpace=wrap;rounded=0;" parent="1" vertex="1">
          <mxGeometry x="364.75" y="601" width="60" height="30" as="geometry" />
        </mxCell>
        <mxCell id="by5dA0bPQGcLcG-1_i2Y-47" value="301&lt;span style=&quot;background-color: initial;&quot;&gt;1&lt;/span&gt;" style="text;html=1;align=center;verticalAlign=middle;whiteSpace=wrap;rounded=0;" parent="1" vertex="1">
          <mxGeometry x="936.25" y="601" width="60" height="30" as="geometry" />
        </mxCell>
        <mxCell id="by5dA0bPQGcLcG-1_i2Y-48" value="" style="sketch=0;pointerEvents=1;shadow=0;dashed=0;html=1;strokeColor=none;fillColor=#505050;labelPosition=center;verticalLabelPosition=bottom;verticalAlign=top;outlineConnect=0;align=center;shape=mxgraph.office.devices.phone_voip;" parent="1" vertex="1">
          <mxGeometry x="111" y="504" width="57" height="51" as="geometry" />
        </mxCell>
        <mxCell id="by5dA0bPQGcLcG-1_i2Y-49" value="1002" style="text;html=1;align=center;verticalAlign=middle;whiteSpace=wrap;rounded=0;" parent="1" vertex="1">
          <mxGeometry x="104" y="555" width="60" height="30" as="geometry" />
        </mxCell>
        <mxCell id="by5dA0bPQGcLcG-1_i2Y-50" value="" style="sketch=0;pointerEvents=1;shadow=0;dashed=0;html=1;strokeColor=none;fillColor=#505050;labelPosition=center;verticalLabelPosition=bottom;verticalAlign=top;outlineConnect=0;align=center;shape=mxgraph.office.devices.phone_voip;" parent="1" vertex="1">
          <mxGeometry x="683" y="499" width="57" height="51" as="geometry" />
        </mxCell>
        <mxCell id="by5dA0bPQGcLcG-1_i2Y-51" value="1012" style="text;html=1;align=center;verticalAlign=middle;whiteSpace=wrap;rounded=0;" parent="1" vertex="1">
          <mxGeometry x="690" y="550" width="60" height="30" as="geometry" />
        </mxCell>
        <mxCell id="by5dA0bPQGcLcG-1_i2Y-52" value="SSID: sup-ap-roam&lt;div&gt;SSID: sup-ap-alone&lt;br&gt;&lt;/div&gt;" style="text;strokeColor=none;fillColor=none;align=left;verticalAlign=middle;spacingLeft=4;spacingRight=4;overflow=hidden;points=[[0,0.5],[1,0.5]];portConstraint=eastwest;rotatable=0;whiteSpace=wrap;html=1;" parent="1" vertex="1">
          <mxGeometry x="437" y="470" width="133" height="60" as="geometry" />
        </mxCell>
        <mxCell id="by5dA0bPQGcLcG-1_i2Y-53" value="SSID: sub-ap-roam&lt;div&gt;SSID: sub-ap-alone&lt;br&gt;&lt;/div&gt;" style="text;strokeColor=none;fillColor=none;align=left;verticalAlign=middle;spacingLeft=4;spacingRight=4;overflow=hidden;points=[[0,0.5],[1,0.5]];portConstraint=eastwest;rotatable=0;whiteSpace=wrap;html=1;" parent="1" vertex="1">
          <mxGeometry x="1010" y="480" width="130" height="50" as="geometry" />
        </mxCell>
        <mxCell id="Ep1STftQRM0y1Ukb86I6-2" value="" style="endArrow=none;html=1;rounded=0;strokeColor=#eeee00;strokeWidth=6;shadow=0;entryX=0;entryY=0.5;entryDx=0;entryDy=0;exitX=1;exitY=0.5;exitDx=0;exitDy=0;" parent="1" source="by5dA0bPQGcLcG-1_i2Y-1" target="by5dA0bPQGcLcG-1_i2Y-5" edge="1">
          <mxGeometry width="50" height="50" relative="1" as="geometry">
            <mxPoint x="460" y="350" as="sourcePoint" />
            <mxPoint x="480" y="280" as="targetPoint" />
          </mxGeometry>
        </mxCell>
        <mxCell id="Ep1STftQRM0y1Ukb86I6-3" value="" style="endArrow=none;html=1;rounded=0;strokeColor=#7EA6E0;strokeWidth=2;entryX=0.25;entryY=1;entryDx=0;entryDy=0;" parent="1" source="by5dA0bPQGcLcG-1_i2Y-8" target="by5dA0bPQGcLcG-1_i2Y-23" edge="1">
          <mxGeometry width="50" height="50" relative="1" as="geometry">
            <mxPoint x="30" y="620" as="sourcePoint" />
            <mxPoint x="80" y="570" as="targetPoint" />
          </mxGeometry>
        </mxCell>
        <mxCell id="Ep1STftQRM0y1Ukb86I6-5" value="" style="endArrow=none;html=1;rounded=0;strokeColor=#7EA6E0;strokeWidth=2;entryX=0.75;entryY=1;entryDx=0;entryDy=0;" parent="1" source="by5dA0bPQGcLcG-1_i2Y-48" target="by5dA0bPQGcLcG-1_i2Y-23" edge="1">
          <mxGeometry width="50" height="50" relative="1" as="geometry">
            <mxPoint x="75" y="514" as="sourcePoint" />
            <mxPoint x="103" y="460" as="targetPoint" />
          </mxGeometry>
        </mxCell>
        <mxCell id="Ep1STftQRM0y1Ukb86I6-8" value="" style="endArrow=none;html=1;rounded=0;strokeColor=#7EA6E0;strokeWidth=2;entryX=0.25;entryY=1;entryDx=0;entryDy=0;" parent="1" source="by5dA0bPQGcLcG-1_i2Y-16" target="by5dA0bPQGcLcG-1_i2Y-25" edge="1">
          <mxGeometry width="50" height="50" relative="1" as="geometry">
            <mxPoint x="142" y="514" as="sourcePoint" />
            <mxPoint x="128" y="460" as="targetPoint" />
          </mxGeometry>
        </mxCell>
        <mxCell id="Ep1STftQRM0y1Ukb86I6-9" value="" style="endArrow=none;html=1;rounded=0;strokeColor=#7EA6E0;strokeWidth=2;entryX=0.75;entryY=1;entryDx=0;entryDy=0;" parent="1" source="by5dA0bPQGcLcG-1_i2Y-50" target="by5dA0bPQGcLcG-1_i2Y-25" edge="1">
          <mxGeometry width="50" height="50" relative="1" as="geometry">
            <mxPoint x="659" y="509" as="sourcePoint" />
            <mxPoint x="673" y="460" as="targetPoint" />
          </mxGeometry>
        </mxCell>
        <mxCell id="Ep1STftQRM0y1Ukb86I6-10" value="" style="endArrow=none;html=1;rounded=0;strokeColor=#00CC00;strokeWidth=2;entryX=0.5;entryY=1;entryDx=0;entryDy=0;" parent="1" source="by5dA0bPQGcLcG-1_i2Y-14" target="by5dA0bPQGcLcG-1_i2Y-24" edge="1">
          <mxGeometry width="50" height="50" relative="1" as="geometry">
            <mxPoint x="178" y="180" as="sourcePoint" />
            <mxPoint x="228" y="130" as="targetPoint" />
          </mxGeometry>
        </mxCell>
        <mxCell id="Ep1STftQRM0y1Ukb86I6-11" value="" style="endArrow=none;html=1;rounded=0;strokeColor=#00CC00;strokeWidth=2;entryX=0.5;entryY=1;entryDx=0;entryDy=0;" parent="1" source="by5dA0bPQGcLcG-1_i2Y-38" target="by5dA0bPQGcLcG-1_i2Y-39" edge="1">
          <mxGeometry width="50" height="50" relative="1" as="geometry">
            <mxPoint x="228" y="518" as="sourcePoint" />
            <mxPoint x="228" y="460" as="targetPoint" />
          </mxGeometry>
        </mxCell>
        <mxCell id="Ep1STftQRM0y1Ukb86I6-12" value="" style="endArrow=none;html=1;rounded=0;strokeColor=#EEEE00;strokeWidth=2;shadow=0;entryX=0.5;entryY=1;entryDx=0;entryDy=0;exitX=0.5;exitY=0;exitDx=0;exitDy=0;exitPerimeter=0;" parent="1" source="by5dA0bPQGcLcG-1_i2Y-7" target="by5dA0bPQGcLcG-1_i2Y-27" edge="1">
          <mxGeometry width="50" height="50" relative="1" as="geometry">
            <mxPoint x="249.5" y="190" as="sourcePoint" />
            <mxPoint x="299.5" y="140" as="targetPoint" />
          </mxGeometry>
        </mxCell>
        <mxCell id="Ep1STftQRM0y1Ukb86I6-13" value="" style="endArrow=none;html=1;rounded=0;strokeColor=#00CC00;strokeWidth=2;entryX=0.5;entryY=1;entryDx=0;entryDy=0;entryPerimeter=0;" parent="1" source="by5dA0bPQGcLcG-1_i2Y-30" target="by5dA0bPQGcLcG-1_i2Y-7" edge="1">
          <mxGeometry width="50" height="50" relative="1" as="geometry">
            <mxPoint x="292" y="518" as="sourcePoint" />
            <mxPoint x="292" y="460" as="targetPoint" />
          </mxGeometry>
        </mxCell>
        <mxCell id="Ep1STftQRM0y1Ukb86I6-14" value="" style="endArrow=none;html=1;rounded=0;strokeColor=#00CC00;strokeWidth=2;entryX=0.572;entryY=1.042;entryDx=0;entryDy=0;entryPerimeter=0;" parent="1" source="by5dA0bPQGcLcG-1_i2Y-12" target="by5dA0bPQGcLcG-1_i2Y-26" edge="1">
          <mxGeometry width="50" height="50" relative="1" as="geometry">
            <mxPoint x="750" y="450" as="sourcePoint" />
            <mxPoint x="228" y="130" as="targetPoint" />
          </mxGeometry>
        </mxCell>
        <mxCell id="Ep1STftQRM0y1Ukb86I6-15" value="" style="endArrow=none;html=1;rounded=0;strokeColor=#00CC00;strokeWidth=2;entryX=0.5;entryY=1;entryDx=0;entryDy=0;" parent="1" source="by5dA0bPQGcLcG-1_i2Y-42" target="by5dA0bPQGcLcG-1_i2Y-43" edge="1">
          <mxGeometry width="50" height="50" relative="1" as="geometry">
            <mxPoint x="811" y="488" as="sourcePoint" />
            <mxPoint x="810" y="462" as="targetPoint" />
          </mxGeometry>
        </mxCell>
        <mxCell id="Ep1STftQRM0y1Ukb86I6-16" value="" style="endArrow=none;html=1;rounded=0;strokeColor=#EEEE00;strokeWidth=2;shadow=0;entryX=0.5;entryY=1;entryDx=0;entryDy=0;" parent="1" source="by5dA0bPQGcLcG-1_i2Y-28" target="by5dA0bPQGcLcG-1_i2Y-29" edge="1">
          <mxGeometry width="50" height="50" relative="1" as="geometry">
            <mxPoint x="409" y="490" as="sourcePoint" />
            <mxPoint x="409" y="460" as="targetPoint" />
          </mxGeometry>
        </mxCell>
        <mxCell id="Ep1STftQRM0y1Ukb86I6-17" value="" style="endArrow=none;html=1;rounded=0;strokeColor=#00CC00;strokeWidth=2;entryX=0.5;entryY=1;entryDx=0;entryDy=0;entryPerimeter=0;" parent="1" source="by5dA0bPQGcLcG-1_i2Y-15" target="by5dA0bPQGcLcG-1_i2Y-28" edge="1">
          <mxGeometry width="50" height="50" relative="1" as="geometry">
            <mxPoint x="970" y="550" as="sourcePoint" />
            <mxPoint x="409" y="539" as="targetPoint" />
          </mxGeometry>
        </mxCell>
        <mxCell id="QKo4oRBuGP1AwFdQR5s3-2" value="&lt;font style=&quot;font-size: 24px;&quot;&gt;级联模式-PBX语音功能测试拓扑&lt;/font&gt;" style="text;html=1;align=center;verticalAlign=middle;whiteSpace=wrap;rounded=0;" vertex="1" parent="1">
          <mxGeometry x="40" width="422" height="60" as="geometry" />
        </mxCell>
        <mxCell id="QKo4oRBuGP1AwFdQR5s3-3" value="" style="group" vertex="1" connectable="0" parent="1">
          <mxGeometry x="100" y="120" width="124" height="30" as="geometry" />
        </mxCell>
        <mxCell id="by5dA0bPQGcLcG-1_i2Y-32" value="" style="endArrow=none;html=1;rounded=0;strokeColor=#7EA6E0;strokeWidth=2;" parent="QKo4oRBuGP1AwFdQR5s3-3" edge="1">
          <mxGeometry width="50" height="50" relative="1" as="geometry">
            <mxPoint y="10" as="sourcePoint" />
            <mxPoint x="60" y="10" as="targetPoint" />
          </mxGeometry>
        </mxCell>
        <mxCell id="Ep1STftQRM0y1Ukb86I6-18" value="网线" style="text;html=1;align=center;verticalAlign=middle;whiteSpace=wrap;rounded=0;" parent="QKo4oRBuGP1AwFdQR5s3-3" vertex="1">
          <mxGeometry x="64" width="60" height="30" as="geometry" />
        </mxCell>
        <mxCell id="QKo4oRBuGP1AwFdQR5s3-4" value="" style="group" vertex="1" connectable="0" parent="1">
          <mxGeometry x="100" y="150" width="128" height="30" as="geometry" />
        </mxCell>
        <mxCell id="by5dA0bPQGcLcG-1_i2Y-35" value="" style="endArrow=none;html=1;rounded=0;strokeColor=#00CC00;strokeWidth=2;" parent="QKo4oRBuGP1AwFdQR5s3-4" edge="1">
          <mxGeometry width="50" height="50" relative="1" as="geometry">
            <mxPoint y="10" as="sourcePoint" />
            <mxPoint x="60" y="10" as="targetPoint" />
          </mxGeometry>
        </mxCell>
        <mxCell id="Ep1STftQRM0y1Ukb86I6-19" value="电话线" style="text;html=1;align=center;verticalAlign=middle;whiteSpace=wrap;rounded=0;" parent="QKo4oRBuGP1AwFdQR5s3-4" vertex="1">
          <mxGeometry x="68" width="60" height="30" as="geometry" />
        </mxCell>
        <mxCell id="QKo4oRBuGP1AwFdQR5s3-5" value="" style="group" vertex="1" connectable="0" parent="1">
          <mxGeometry x="100" y="180" width="124" height="30" as="geometry" />
        </mxCell>
        <mxCell id="Ep1STftQRM0y1Ukb86I6-1" value="" style="endArrow=none;html=1;rounded=0;strokeColor=#EEEE00;strokeWidth=2;shadow=0;" parent="QKo4oRBuGP1AwFdQR5s3-5" edge="1">
          <mxGeometry width="50" height="50" relative="1" as="geometry">
            <mxPoint y="10" as="sourcePoint" />
            <mxPoint x="60" y="10" as="targetPoint" />
          </mxGeometry>
        </mxCell>
        <mxCell id="Ep1STftQRM0y1Ukb86I6-20" value="光纤" style="text;html=1;align=center;verticalAlign=middle;whiteSpace=wrap;rounded=0;" parent="QKo4oRBuGP1AwFdQR5s3-5" vertex="1">
          <mxGeometry x="64" width="60" height="30" as="geometry" />
        </mxCell>
      </root>
    </mxGraphModel>
  </diagram>
  <diagram id="cFqsDGn_sC-Uk8bXX-Pq" name="portal_auth">
    <mxGraphModel dx="1044" dy="613" grid="1" gridSize="10" guides="1" tooltips="1" connect="1" arrows="1" fold="1" page="1" pageScale="1" pageWidth="827" pageHeight="1169" math="0" shadow="0">
      <root>
        <mxCell id="0" />
        <mxCell id="1" parent="0" />
        <mxCell id="C4Nu0ADXO4HTkM-mq0jx-2" value="Client" style="shape=umlLifeline;perimeter=lifelinePerimeter;whiteSpace=wrap;html=1;container=1;dropTarget=0;collapsible=0;recursiveResize=0;outlineConnect=0;portConstraint=eastwest;newEdgeStyle={&quot;curved&quot;:0,&quot;rounded&quot;:0};" vertex="1" parent="1">
          <mxGeometry x="170" y="140" width="100" height="530" as="geometry" />
        </mxCell>
        <mxCell id="C4Nu0ADXO4HTkM-mq0jx-3" value="Auth_Server&lt;div&gt;(wifidog_auth)&lt;/div&gt;" style="shape=umlLifeline;perimeter=lifelinePerimeter;whiteSpace=wrap;html=1;container=1;dropTarget=0;collapsible=0;recursiveResize=0;outlineConnect=0;portConstraint=eastwest;newEdgeStyle={&quot;curved&quot;:0,&quot;rounded&quot;:0};" vertex="1" parent="1">
          <mxGeometry x="580" y="140" width="100" height="530" as="geometry" />
        </mxCell>
        <mxCell id="C4Nu0ADXO4HTkM-mq0jx-13" value="" style="html=1;points=[[0,0,0,0,5],[0,1,0,0,-5],[1,0,0,0,5],[1,1,0,0,-5]];perimeter=orthogonalPerimeter;outlineConnect=0;targetShapes=umlLifeline;portConstraint=eastwest;newEdgeStyle={&quot;curved&quot;:0,&quot;rounded&quot;:0};" vertex="1" parent="C4Nu0ADXO4HTkM-mq0jx-3">
          <mxGeometry x="45" y="200" width="10" height="60" as="geometry" />
        </mxCell>
        <mxCell id="C4Nu0ADXO4HTkM-mq0jx-15" value="" style="html=1;points=[[0,0,0,0,5],[0,1,0,0,-5],[1,0,0,0,5],[1,1,0,0,-5]];perimeter=orthogonalPerimeter;outlineConnect=0;targetShapes=umlLifeline;portConstraint=eastwest;newEdgeStyle={&quot;curved&quot;:0,&quot;rounded&quot;:0};" vertex="1" parent="C4Nu0ADXO4HTkM-mq0jx-3">
          <mxGeometry x="45" y="310" width="10" height="50" as="geometry" />
        </mxCell>
        <mxCell id="C4Nu0ADXO4HTkM-mq0jx-32" value="" style="html=1;points=[[0,0,0,0,5],[0,1,0,0,-5],[1,0,0,0,5],[1,1,0,0,-5]];perimeter=orthogonalPerimeter;outlineConnect=0;targetShapes=umlLifeline;portConstraint=eastwest;newEdgeStyle={&quot;curved&quot;:0,&quot;rounded&quot;:0};" vertex="1" parent="C4Nu0ADXO4HTkM-mq0jx-3">
          <mxGeometry x="45" y="460" width="10" height="50" as="geometry" />
        </mxCell>
        <mxCell id="C4Nu0ADXO4HTkM-mq0jx-4" value="Gateway&lt;div&gt;(wifidog)&lt;/div&gt;" style="shape=umlLifeline;perimeter=lifelinePerimeter;whiteSpace=wrap;html=1;container=1;dropTarget=0;collapsible=0;recursiveResize=0;outlineConnect=0;portConstraint=eastwest;newEdgeStyle={&quot;curved&quot;:0,&quot;rounded&quot;:0};" vertex="1" parent="1">
          <mxGeometry x="350" y="140" width="100" height="520" as="geometry" />
        </mxCell>
        <mxCell id="C4Nu0ADXO4HTkM-mq0jx-6" value="" style="html=1;points=[[0,0,0,0,5],[0,1,0,0,-5],[1,0,0,0,5],[1,1,0,0,-5]];perimeter=orthogonalPerimeter;outlineConnect=0;targetShapes=umlLifeline;portConstraint=eastwest;newEdgeStyle={&quot;curved&quot;:0,&quot;rounded&quot;:0};" vertex="1" parent="C4Nu0ADXO4HTkM-mq0jx-4">
          <mxGeometry x="45" y="80" width="10" height="60" as="geometry" />
        </mxCell>
        <mxCell id="C4Nu0ADXO4HTkM-mq0jx-18" value="" style="html=1;points=[[0,0,0,0,5],[0,1,0,0,-5],[1,0,0,0,5],[1,1,0,0,-5]];perimeter=orthogonalPerimeter;outlineConnect=0;targetShapes=umlLifeline;portConstraint=eastwest;newEdgeStyle={&quot;curved&quot;:0,&quot;rounded&quot;:0};" vertex="1" parent="C4Nu0ADXO4HTkM-mq0jx-4">
          <mxGeometry x="45" y="395" width="10" height="50" as="geometry" />
        </mxCell>
        <mxCell id="C4Nu0ADXO4HTkM-mq0jx-5" value="(1) request some domain" style="html=1;verticalAlign=bottom;endArrow=block;curved=0;rounded=0;entryX=0.6;entryY=0.2;entryDx=0;entryDy=0;entryPerimeter=0;" edge="1" parent="1" source="C4Nu0ADXO4HTkM-mq0jx-2" target="C4Nu0ADXO4HTkM-mq0jx-6">
          <mxGeometry width="80" relative="1" as="geometry">
            <mxPoint x="90" y="310" as="sourcePoint" />
            <mxPoint x="390" y="230" as="targetPoint" />
            <Array as="points">
              <mxPoint x="310" y="230" />
            </Array>
            <mxPoint as="offset" />
          </mxGeometry>
        </mxCell>
        <mxCell id="C4Nu0ADXO4HTkM-mq0jx-8" value="(2) return redirect indirective" style="html=1;verticalAlign=bottom;endArrow=open;dashed=1;endSize=8;curved=0;rounded=0;" edge="1" parent="1" source="C4Nu0ADXO4HTkM-mq0jx-6" target="C4Nu0ADXO4HTkM-mq0jx-2">
          <mxGeometry relative="1" as="geometry">
            <mxPoint x="390" y="310" as="sourcePoint" />
            <mxPoint x="310" y="310" as="targetPoint" />
            <Array as="points">
              <mxPoint x="300" y="270" />
            </Array>
          </mxGeometry>
        </mxCell>
        <mxCell id="C4Nu0ADXO4HTkM-mq0jx-9" value="(3) redirect to auth server&amp;nbsp; with client information and gateway information" style="html=1;verticalAlign=bottom;endArrow=block;curved=0;rounded=0;" edge="1" parent="1" target="C4Nu0ADXO4HTkM-mq0jx-13">
          <mxGeometry width="80" relative="1" as="geometry">
            <mxPoint x="220" y="350" as="sourcePoint" />
            <mxPoint x="650" y="350" as="targetPoint" />
            <Array as="points" />
            <mxPoint as="offset" />
          </mxGeometry>
        </mxCell>
        <mxCell id="C4Nu0ADXO4HTkM-mq0jx-10" value="(4) return login page" style="html=1;verticalAlign=bottom;endArrow=open;dashed=1;endSize=8;curved=0;rounded=0;exitX=0;exitY=1;exitDx=0;exitDy=-5;exitPerimeter=0;" edge="1" parent="1" source="C4Nu0ADXO4HTkM-mq0jx-13" target="C4Nu0ADXO4HTkM-mq0jx-2">
          <mxGeometry relative="1" as="geometry">
            <mxPoint x="590" y="390" as="sourcePoint" />
            <mxPoint x="220" y="390" as="targetPoint" />
          </mxGeometry>
        </mxCell>
        <mxCell id="C4Nu0ADXO4HTkM-mq0jx-16" value="(5) login&amp;nbsp; request" style="html=1;verticalAlign=bottom;endArrow=block;curved=0;rounded=0;entryX=0;entryY=0;entryDx=0;entryDy=5;" edge="1" target="C4Nu0ADXO4HTkM-mq0jx-15" parent="1" source="C4Nu0ADXO4HTkM-mq0jx-2">
          <mxGeometry relative="1" as="geometry">
            <mxPoint x="585" y="455" as="sourcePoint" />
          </mxGeometry>
        </mxCell>
        <mxCell id="C4Nu0ADXO4HTkM-mq0jx-17" value="(6) login success" style="html=1;verticalAlign=bottom;endArrow=open;dashed=1;endSize=8;curved=0;rounded=0;exitX=0;exitY=1;exitDx=0;exitDy=-5;" edge="1" source="C4Nu0ADXO4HTkM-mq0jx-15" parent="1" target="C4Nu0ADXO4HTkM-mq0jx-2">
          <mxGeometry relative="1" as="geometry">
            <mxPoint x="585" y="525" as="targetPoint" />
          </mxGeometry>
        </mxCell>
        <mxCell id="C4Nu0ADXO4HTkM-mq0jx-30" value="(9) get portal page" style="html=1;verticalAlign=bottom;endArrow=block;curved=0;rounded=0;entryX=0;entryY=0;entryDx=0;entryDy=5;" edge="1" parent="1" target="C4Nu0ADXO4HTkM-mq0jx-32">
          <mxGeometry relative="1" as="geometry">
            <mxPoint x="220" y="605" as="sourcePoint" />
          </mxGeometry>
        </mxCell>
        <mxCell id="C4Nu0ADXO4HTkM-mq0jx-31" value="(10) write portal page" style="html=1;verticalAlign=bottom;endArrow=open;dashed=1;endSize=8;curved=0;rounded=0;exitX=0;exitY=1;exitDx=0;exitDy=-5;" edge="1" parent="1" source="C4Nu0ADXO4HTkM-mq0jx-32">
          <mxGeometry relative="1" as="geometry">
            <mxPoint x="220" y="645" as="targetPoint" />
          </mxGeometry>
        </mxCell>
        <mxCell id="C4Nu0ADXO4HTkM-mq0jx-19" value="(7) get portal page" style="html=1;verticalAlign=bottom;endArrow=block;curved=0;rounded=0;entryX=0;entryY=0;entryDx=0;entryDy=5;" edge="1" parent="1" target="C4Nu0ADXO4HTkM-mq0jx-18" source="C4Nu0ADXO4HTkM-mq0jx-2">
          <mxGeometry relative="1" as="geometry">
            <mxPoint x="230" y="540" as="sourcePoint" />
          </mxGeometry>
        </mxCell>
        <mxCell id="C4Nu0ADXO4HTkM-mq0jx-20" value="(8) return redirect portal page" style="html=1;verticalAlign=bottom;endArrow=open;dashed=1;endSize=8;curved=0;rounded=0;exitX=0;exitY=1;exitDx=0;exitDy=-5;" edge="1" parent="1" source="C4Nu0ADXO4HTkM-mq0jx-18" target="C4Nu0ADXO4HTkM-mq0jx-2">
          <mxGeometry relative="1" as="geometry">
            <mxPoint x="240" y="580" as="targetPoint" />
          </mxGeometry>
        </mxCell>
      </root>
    </mxGraphModel>
  </diagram>
</mxfile>
